# xmcd
# 
# Track frame offsets:
#     150
#     16595
#     32600
#     48880
#     69125
#     92640
#     115480
#     136930
#     157955
#     178772
#     198690
#     218947
#     240820
#     262560
# 
# Disc length: 3822
# 
# Revision: 24
# Processed by: cddbd v1.5.2PL0 Copyright (c) Steve Scherf et al.
# Submitted via: fre:ac v1.0.17
# 
DISCID=a80eec0e
DTITLE=大黒摩季 - BACK BEATs #1
DYEAR=1995
DGENRE=JPop
TTITLE0=STOP MOTION
TTITLE1=DA・KA・RA
TTITLE2=チョット
TTITLE3=君に愛されるそのために…
TTITLE4=別れましょう私から 消えましょうあなたから
TTITLE5=あなただけ見つめてる
TTITLE6=夏が来る
TTITLE7=永遠の夢に向かって
TTITLE8=Return To My Love
TTITLE9=ら・ら・ら
TTITLE10=恋はメリーゴーランド
TTITLE11=いちばん近くにいてね
TTITLE12=愛してます
TTITLE13=ROCKs
EXTD=
EXTT0=
EXTT1=
EXTT2=
EXTT3=
EXTT4=
EXTT5=
EXTT6=
EXTT7=
EXTT8=
EXTT9=
EXTT10=
EXTT11=
EXTT12=
EXTT13=
PLAYORDER=
